<?xml version="1.0" standalone="no"?>
<!DOCTYPE svg PUBLIC "-//W3C//DTD SVG 20010904//EN"
 "http://www.w3.org/TR/2001/REC-SVG-20010904/DTD/svg10.dtd">
<svg version="1.0" xmlns="http://www.w3.org/2000/svg"
 width="360.000000pt" height="360.000000pt" viewBox="0 0 360.000000 360.000000"
 preserveAspectRatio="xMidYMid meet">

<g transform="translate(0.000000,360.000000) scale(0.100000,-0.100000)"
fill="#000000" stroke="none">
<path d="M2048 3310 c-575 -5 -587 -5 -615 -26 -15 -11 -37 -34 -48 -51 -17
-25 -120 -395 -203 -728 -79 -323 -165 -646 -178 -674 -8 -19 -39 -129 -69
-245 -29 -116 -107 -420 -173 -676 -66 -256 -123 -482 -126 -502 -8 -43 12
-89 48 -113 40 -27 194 -31 858 -26 636 6 647 6 675 27 15 11 37 34 48 51 17
25 120 395 203 728 74 300 166 648 182 690 10 28 44 147 74 265 30 118 106
415 169 660 63 245 118 462 121 482 8 43 -12 89 -48 113 -25 17 -187 36 -276
32 -30 -1 -319 -4 -642 -7z"/>
</g>
</svg>
